<svg width="18" height="18" viewBox="0 0 18 18" fill="none" xmlns="http://www.w3.org/2000/svg">
<path fill-rule="evenodd" clip-rule="evenodd" d="M1.07299 1.09068C1.33318 0.830301 1.68603 0.68403 2.05394 0.68403C2.42186 0.68403 2.77471 0.830301 3.0349 1.09068L8.99141 7.05318L14.9479 1.09068C15.0759 0.958025 15.229 0.852216 15.3983 0.779426C15.5676 0.706635 15.7496 0.668321 15.9339 0.666718C16.1181 0.665116 16.3008 0.700257 16.4713 0.770091C16.6418 0.839926 16.7968 0.943055 16.927 1.07346C17.0573 1.20387 17.1603 1.35894 17.2301 1.52963C17.2999 1.70032 17.335 1.88321 17.3334 2.06762C17.3318 2.25204 17.2935 2.43429 17.2208 2.60374C17.1481 2.77319 17.0423 2.92645 16.9098 3.05457L10.9533 9.01707L16.9098 14.9796C17.1626 15.2415 17.3024 15.5924 17.2993 15.9565C17.2961 16.3207 17.1502 16.669 16.8929 16.9265C16.6357 17.184 16.2877 17.3301 15.9239 17.3333C15.5601 17.3364 15.2096 17.1965 14.9479 16.9435L8.99141 10.981L3.0349 16.9435C2.77322 17.1965 2.42273 17.3364 2.05894 17.3333C1.69514 17.3301 1.34714 17.184 1.08989 16.9265C0.832636 16.669 0.686715 16.3207 0.683554 15.9565C0.680392 15.5924 0.820244 15.2415 1.07299 14.9796L7.02949 9.01707L1.07299 3.05457C0.812873 2.79411 0.666748 2.44091 0.666748 2.07262C0.666748 1.70434 0.812873 1.35113 1.07299 1.09068V1.09068Z" fill="#828282"/>
</svg>
